<svg data-v-dcc84960="" version="1.0" xmlns="http://www.w3.org/2000/svg" xmlns:xlink="http://www.w3.org/1999/xlink" width="100%" height="100%" viewBox="0 0 340.000000 250.000000" preserveAspectRatio="xMidYMid meet" color-interpolation-filters="sRGB" class="el-tooltip" style="margin: auto;"><rect data-v-dcc84960="" x="0" y="0" width="100%" height="100%" fill="#0063dc" fill-opacity="1"></rect>  <g data-v-dcc84960="" fill="#fff" class="icon-text-wrapper icon-svg-group iconsvg" transform="translate(98.36000061035156,75.00899887084961)"><g class="iconsvg-imagesvg" transform="translate(49.13999938964844,0)"><rect fill="#fff" fill-opacity="0" stroke-width="2" x="0" y="0" width="45" height="45" class="image-rect"></rect> <svg filter="url(#colors6434082184)" x="0" y="0" width="45" height="45" filtersec="colorsf1752182631" class="image-svg-svg"><svg xmlns="http://www.w3.org/2000/svg" viewBox="0 0 125 125"><g><g fill="#0064d2"><path d="M0 47.34V0h47.34L0 47.34zM125 125H77.66L125 77.66V125zM24.23 125H0v-24.23L100.77 0H125v24.23L24.23 125z"></path></g></g></svg></svg> <defs><filter id="colors6434082184"><feColorMatrix type="matrix" values="0 0 0 0 0.99609375  0 0 0 0 0.99609375  0 0 0 0 0.99609375  0 0 0 1 0" class="icon-fecolormatrix"></feColorMatrix></filter> <filter id="colorsf1752182631"><feColorMatrix type="matrix" values="0 0 0 0 0.99609375  0 0 0 0 0.99609375  0 0 0 0 0.99609375  0 0 0 1 0" class="icon-fecolormatrix"></feColorMatrix></filter> <filter id="colorsb1931281485"><feColorMatrix type="matrix" values="0 0 0 0 0  0 0 0 0 0  0 0 0 0 0  0 0 0 1 0" class="icon-fecolormatrix"></feColorMatrix></filter></defs></g> <g transform="translate(0,53)"><g class="tp-name iconsvg-namesvg" transform="translate(0,0)"><g><path d="M10.36-28.84L16.16-28.84L14.96-26.12L33.80-26.12L33.80-23L33.80-22.20L33.80-18.72L33.80-14.76L33.80-11.32L33.80-7.36L33.80-4.36L33.80-4.36Q33.80-3.44 33.46-2.64L33.46-2.64L33.46-2.64Q33.12-1.84 32.52-1.24L32.52-1.24L32.52-1.24Q31.92-0.64 31.12-0.30L31.12-0.30L31.12-0.30Q30.32 0.04 29.44 0.04L29.44 0.04L3 0.04L3-3.92L3-7.36L3-11.32L3-14.76L3-18.72L3-22.20L3-24.76L3-26.12L9.16-26.12L10.36-28.84ZM28.28-5.16L28.28-7.36L8.56-7.36L8.56-3.92L27-3.92L27-3.92Q27.56-3.92 27.92-4.28L27.92-4.28L27.92-4.28Q28.28-4.64 28.28-5.16L28.28-5.16ZM28.28-11.32L28.28-14.76L8.56-14.76L8.56-11.32L28.28-11.32ZM28.28-18.72L28.28-22.20L8.56-22.20L8.56-18.72L28.28-18.72ZM52.28-28.80L58.12-28.80L58.12-25.40L72.40-25.40L72.40-25.32L72.40-21.48L72.40-3.76L72.40-3.76Q72.40-2.96 72.10-2.28L72.10-2.28L72.10-2.28Q71.80-1.60 71.30-1.10L71.30-1.10L71.30-1.10Q70.80-0.60 70.10-0.30L70.10-0.30L70.10-0.30Q69.40 0 68.64 0L68.64 0L43.52 0L38.00 0L38.00-3.88L38.00-21.48L38.00-21.96L38.00-25.40L52.28-25.40L52.28-28.80ZM52.28-21.48L43.52-21.48L43.52-14.64L52.28-14.64L52.28-21.48ZM43.52-10.72L43.52-3.88L52.28-3.88L52.28-10.72L43.52-10.72ZM58.12-3.88L65.60-3.88L65.60-3.88Q66.16-3.88 66.52-4.24L66.52-4.24L66.52-4.24Q66.88-4.60 66.88-5.16L66.88-5.16L66.88-10.72L58.12-10.72L58.12-3.88ZM66.88-21.48L58.12-21.48L58.12-14.64L66.88-14.64L66.88-21.48ZM85.00-0.04L74.36-0.04L88.32-7.24L88.32-10.36L95.32-10.36L95.32-7.52L99.16-7.52L103.00-4.76L103.00-9.56L103.00-9.56Q103.00-10.08 102.64-10.46L102.64-10.46L102.64-10.46Q102.28-10.84 101.76-10.84L101.76-10.84L81.44-10.84L81.44-4.72L75.88-4.72L75.88-14.40L104.16-14.40L104.16-14.40Q105.08-14.40 105.88-14.06L105.88-14.06L105.88-14.06Q106.68-13.72 107.28-13.12L107.28-13.12L107.28-13.12Q107.88-12.52 108.22-11.72L108.22-11.72L108.22-11.72Q108.56-10.92 108.56-10L108.56-10L108.56-4.72L103.04-4.72L109.60-0.04L101.08-0.04L94.60-5.08L85.00-0.04ZM75.32-15.56L77.96-22.36L83.52-22.36L80.88-15.56L75.32-15.56ZM80.92-28.72L83.52-23.80L77.96-23.80L75.40-28.72L80.92-28.72ZM92.28-27.64L109.56-27.64L107.32-21.48L102.08-21.48L103.12-23.96L84.60-23.96L86.84-28.80L92.76-28.80L92.28-27.64ZM99.44-23.04L99.44-21.40L97.36-19.92L101.92-19.92L109.04-15.56L101.28-15.56L96.20-19.12L91.12-15.56L83.92-15.56L92.32-21.40L92.32-23.04L99.44-23.04ZM116.24-19.56L121.76-19.56L116.80-0.04L111.28-0.04L116.24-19.56ZM135.80-19.56L141.32-19.56L146.28-0.04L140.76-0.04L135.80-19.56ZM131.48-28.80L131.48-25.84L146.28-25.84L146.28-21.72L131.48-21.72L131.48-7.80L138.16-7.80L138.16-3.68L131.48-3.68L131.48-0.04L126.08-0.04L126.08-3.68L119.40-3.68L119.40-7.80L126.08-7.80L126.08-21.72L111.28-21.72L111.28-25.84L126.08-25.84L126.08-28.80L131.48-28.80Z" transform="translate(-3, 28.84)"></path></g> <!----> <!----> <!----> <!----> <!----> <!----> <g fill="#fff" transform="translate(146.27999877929688,0)"></g></g> <g class="tp-slogan iconsvg-slogansvg" fill="#fff" transform="translate(14.915000915527344,38.880001068115234)"><!----> <!----> <!----> <g><path d="M2.41-4.73L7.19-4.73L7.19-3.30L2.41-3.30L2.41 0L0.72 0L0.72-4.18L0.72-4.18Q0.73-5.98 1.06-6.54L1.06-6.54L1.06-6.54Q1.46-7.33 2.24-7.67L2.24-7.67L2.24-7.67Q3.01-8.00 4.42-8.00L4.42-8.00L7.19-8.00L7.19-6.58L4.63-6.58L4.63-6.58Q3.44-6.55 3.11-6.38L3.11-6.38L3.11-6.38Q2.44-6.11 2.41-5.16L2.41-5.16L2.41-4.73ZM11.52-3.04L10.15-3.04L10.15 0L8.45 0L8.45-8.00L12.36-8.00L12.36-8.00Q14.04-8.00 14.70-7.57L14.70-7.57L14.70-7.57Q15.16-7.28 15.40-6.81L15.40-6.81L15.40-6.81Q15.65-6.34 15.65-5.77L15.65-5.77L15.65-5.77Q15.65-4.63 15.07-4.01L15.07-4.01L15.07-4.01Q14.71-3.64 14.12-3.44L14.12-3.44L14.12-3.44Q14.59-3.28 14.83-3.09L14.83-3.09L14.83-3.09Q15.07-2.90 15.26-2.54L15.26-2.54L15.26-2.54Q15.41-2.26 15.47-1.99L15.47-1.99L15.47-1.99Q15.54-1.73 15.58-1.21L15.58-1.21L15.58-1.21Q15.65-0.35 15.77 0L15.77 0L13.86 0L13.86 0Q13.78-0.28 13.68-1.14L13.68-1.14L13.68-1.14Q13.62-1.84 13.43-2.21L13.43-2.21L13.43-2.21Q13.25-2.58 12.88-2.80L12.88-2.80L12.88-2.80Q12.41-3.05 11.52-3.04L11.52-3.04ZM10.15-6.58L10.15-4.46L12.54-4.46L12.54-4.46Q13.14-4.46 13.39-4.64L13.39-4.64L13.39-4.64Q13.78-4.91 13.78-5.57L13.78-5.57L13.78-5.57Q13.78-6.30 13.20-6.50L13.20-6.50L13.20-6.50Q13.00-6.58 12.54-6.58L12.54-6.58L10.15-6.58ZM20.15-8.00L23.02-8.00L23.02-6.58L20.80-6.58L20.80-6.58Q19.93-6.58 19.54-6.46L19.54-6.46L19.54-6.46Q19.14-6.34 18.88-5.99L18.88-5.99L18.88-5.99Q18.70-5.75 18.63-5.51L18.63-5.51L18.63-5.51Q18.56-5.27 18.52-4.69L18.52-4.69L23.02-4.69L23.02-3.26L18.52-3.26L18.52-3.26Q18.61-2.23 19.13-1.83L19.13-1.83L19.13-1.83Q19.64-1.43 20.88-1.43L20.88-1.43L23.02-1.43L23.02 0L20.80 0L20.80 0Q19.90 0 19.21-0.11L19.21-0.11L19.21-0.11Q18.13-0.29 17.50-1.06L17.50-1.06L17.50-1.06Q16.58-2.16 16.58-4.04L16.58-4.04L16.58-4.04Q16.58-6.13 17.87-7.30L17.87-7.30L17.87-7.30Q18.31-7.69 18.81-7.85L18.81-7.85L18.81-7.85Q19.31-8.00 20.15-8.00L20.15-8.00ZM27.49-8.00L30.36-8.00L30.36-6.58L28.14-6.58L28.14-6.58Q27.28-6.58 26.88-6.46L26.88-6.46L26.88-6.46Q26.48-6.34 26.22-5.99L26.22-5.99L26.22-5.99Q26.04-5.75 25.97-5.51L25.97-5.51L25.97-5.51Q25.91-5.27 25.86-4.69L25.86-4.69L30.36-4.69L30.36-3.26L25.86-3.26L25.86-3.26Q25.96-2.23 26.47-1.83L26.47-1.83L26.47-1.83Q26.99-1.43 28.22-1.43L28.22-1.43L30.36-1.43L30.36 0L28.14 0L28.14 0Q27.24 0 26.56-0.11L26.56-0.11L26.56-0.11Q25.48-0.29 24.84-1.06L24.84-1.06L24.84-1.06Q23.93-2.16 23.93-4.04L23.93-4.04L23.93-4.04Q23.93-6.13 25.21-7.30L25.21-7.30L25.21-7.30Q25.66-7.69 26.15-7.85L26.15-7.85L26.15-7.85Q26.65-8.00 27.49-8.00L27.49-8.00ZM31.70 0L31.70-8.00L35.10-8.00L35.10-8.00Q36.37-8.00 37.07-7.75L37.07-7.75L37.07-7.75Q38.35-7.28 38.78-6.04L38.78-6.04L38.78-6.04Q39.11-5.08 39.11-3.98L39.11-3.98L39.11-3.98Q39.11-2.90 38.80-1.94L38.80-1.94L38.80-1.94Q38.48-0.96 37.76-0.49L37.76-0.49L37.76-0.49Q37.31-0.20 36.76-0.10L36.76-0.10L36.76-0.10Q36.22 0 35.10 0L35.10 0L31.70 0ZM35.10-6.58L33.41-6.58L33.41-1.43L35.10-1.43L35.10-1.43Q36.22-1.43 36.65-1.92L36.65-1.92L36.65-1.92Q36.91-2.23 37.07-2.80L37.07-2.80L37.07-2.80Q37.24-3.36 37.24-4.00L37.24-4.00L37.24-4.00Q37.24-4.70 37.04-5.29L37.04-5.29L37.04-5.29Q36.85-5.88 36.54-6.17L36.54-6.17L36.54-6.17Q36.08-6.58 35.10-6.58L35.10-6.58ZM43.81-8.05L43.81-8.05L43.81-8.05Q45.01-8.05 45.92-7.64L45.92-7.64L45.92-7.64Q46.99-7.15 47.42-6L47.42-6L47.42-6Q47.76-5.10 47.76-3.89L47.76-3.89L47.76-3.89Q47.76-2.66 47.35-1.76L47.35-1.76L47.35-1.76Q46.84-0.70 45.77-0.26L45.77-0.26L45.77-0.26Q44.98 0.05 43.94 0.05L43.94 0.05L43.94 0.05Q42.59 0.05 41.59-0.46L41.59-0.46L41.59-0.46Q40.75-0.88 40.31-1.78L40.31-1.78L40.31-1.78Q39.86-2.68 39.86-3.96L39.86-3.96L39.86-3.96Q39.86-6.25 41.00-7.22L41.00-7.22L41.00-7.22Q41.96-8.04 43.81-8.05ZM43.82-6.71L43.82-6.71L43.82-6.71Q42.65-6.71 42.14-5.94L42.14-5.94L42.14-5.94Q41.74-5.34 41.74-4.01L41.74-4.01L41.74-4.01Q41.74-2.60 42.24-1.94L42.24-1.94L42.24-1.94Q42.74-1.30 43.84-1.30L43.84-1.30L43.84-1.30Q44.89-1.30 45.39-1.96L45.39-1.96L45.39-1.96Q45.89-2.62 45.89-4.00L45.89-4.00L45.89-4.00Q45.89-5.26 45.48-5.92L45.48-5.92L45.48-5.92Q45.01-6.70 43.82-6.71ZM48.92-8.00L51.41-8.00L53.40-1.75L55.50-8.00L57.98-8.00L57.98 0L56.36 0L56.36-6L54.28 0L52.52 0L50.54-6L50.54 0L48.92 0L48.92-8.00ZM69.26-1.43L71.71-1.43L71.71 0L68.92 0L68.92 0Q68.12 0 67.70-0.08L67.70-0.08L67.70-0.08Q66.23-0.37 65.60-1.73L65.60-1.73L65.60-1.73Q65.20-2.64 65.20-3.98L65.20-3.98L65.20-3.98Q65.20-5.59 65.82-6.60L65.82-6.60L65.82-6.60Q66.28-7.33 67.04-7.67L67.04-7.67L67.04-7.67Q67.80-8.00 69.00-8.00L69.00-8.00L71.71-8.00L71.71-6.58L69.19-6.58L69.19-6.58Q68.05-6.58 67.52-5.96L67.52-5.96L67.52-5.96Q67.08-5.46 67.08-4.14L67.08-4.14L67.08-4.14Q67.08-2.36 67.76-1.81L67.76-1.81L67.76-1.81Q68.24-1.43 69.26-1.43L69.26-1.43ZM74.11 0L72.12 0L75.43-8.00L77.39-8.00L80.70 0L78.71 0L77.93-1.85L74.89-1.85L74.11 0ZM77.56-3.28L76.42-6.07L75.28-3.28L77.56-3.28ZM86.00-2.80L83.27-2.80L83.27 0L81.56 0L81.56-8.00L85.56-8.00L85.56-8.00Q86.65-8.00 87.12-7.85L87.12-7.85L87.12-7.85Q87.91-7.58 88.37-6.76L88.37-6.76L88.37-6.76Q88.70-6.13 88.70-5.40L88.70-5.40L88.70-5.40Q88.70-4.79 88.48-4.24L88.48-4.24L88.48-4.24Q88.26-3.70 87.86-3.35L87.86-3.35L87.86-3.35Q87.50-3.04 87.10-2.92L87.10-2.92L87.10-2.92Q86.70-2.80 86.00-2.80L86.00-2.80ZM83.27-6.58L83.27-4.22L85.58-4.22L85.58-4.22Q86.21-4.22 86.46-4.42L86.46-4.42L86.46-4.42Q86.83-4.72 86.83-5.46L86.83-5.46L86.83-5.46Q86.83-6.26 86.27-6.49L86.27-6.49L86.27-6.49Q86.06-6.58 85.62-6.58L85.62-6.58L83.27-6.58ZM91.49 0L89.78 0L89.78-8.00L91.49-8.00L91.49 0ZM94.88 0L94.88-6.58L92.34-6.58L92.34-8.00L99.24-8.00L99.24-6.58L96.59-6.58L96.59 0L94.88 0ZM101.33 0L99.34 0L102.65-8.00L104.60-8.00L107.92 0L105.92 0L105.14-1.85L102.11-1.85L101.33 0ZM104.77-3.28L103.63-6.07L102.49-3.28L104.77-3.28ZM108.68-3.50L108.68-8.00L110.38-8.00L110.38-3.50L110.38-3.50Q110.41-2.65 110.45-2.38L110.45-2.38L110.45-2.38Q110.53-1.82 110.98-1.63L110.98-1.63L110.98-1.63Q111.42-1.43 112.54-1.43L112.54-1.43L114.17-1.43L114.17 0L112.36 0L112.36 0Q111.07 0 110.50-0.14L110.50-0.14L110.50-0.14Q109.18-0.53 108.82-1.82L108.82-1.82L108.82-1.82Q108.68-2.33 108.68-3.50L108.68-3.50Z" transform="translate(-0.72, 8.052)"></path></g></g></g></g></svg>